<mxfile host="app.diagrams.net" modified="2023-05-18T01:24:56.730Z" agent="Mozilla/5.0 (Windows NT 10.0; Win64; x64) AppleWebKit/537.36 (KHTML, like Gecko) Chrome/113.0.0.0 Safari/537.36" etag="B3oruHBwn-vxlwfBPrH3" version="21.3.2" type="github">
  <diagram name="Page-1" id="2YBvvXClWsGukQMizWep">
    <mxGraphModel dx="2284" dy="796" grid="1" gridSize="10" guides="1" tooltips="1" connect="1" arrows="1" fold="1" page="1" pageScale="1" pageWidth="850" pageHeight="1100" math="0" shadow="0">
      <root>
        <mxCell id="0" />
        <mxCell id="1" parent="0" />
        <mxCell id="Uk5BdP9TBarbO92YxZMm-1" value="Aluno" style="shape=umlActor;verticalLabelPosition=bottom;verticalAlign=top;html=1;outlineConnect=0;" parent="1" vertex="1">
          <mxGeometry x="-380" y="180" width="30" height="60" as="geometry" />
        </mxCell>
        <mxCell id="Q1VgEeJRlTlvnJsxtet2-5" value="van: VantagemController&amp;nbsp;" style="shape=umlLifeline;perimeter=lifelinePerimeter;whiteSpace=wrap;html=1;container=0;dropTarget=0;collapsible=0;recursiveResize=0;outlineConnect=0;portConstraint=eastwest;newEdgeStyle={&quot;edgeStyle&quot;:&quot;elbowEdgeStyle&quot;,&quot;elbow&quot;:&quot;vertical&quot;,&quot;curved&quot;:0,&quot;rounded&quot;:0};" parent="1" vertex="1">
          <mxGeometry x="130" y="80" width="140" height="420" as="geometry" />
        </mxCell>
        <mxCell id="Q1VgEeJRlTlvnJsxtet2-6" value="" style="html=1;points=[];perimeter=orthogonalPerimeter;outlineConnect=0;targetShapes=umlLifeline;portConstraint=eastwest;newEdgeStyle={&quot;edgeStyle&quot;:&quot;elbowEdgeStyle&quot;,&quot;elbow&quot;:&quot;vertical&quot;,&quot;curved&quot;:0,&quot;rounded&quot;:0};" parent="Q1VgEeJRlTlvnJsxtet2-5" vertex="1">
          <mxGeometry x="65" y="60" width="10" height="330" as="geometry" />
        </mxCell>
        <mxCell id="Q1VgEeJRlTlvnJsxtet2-9" value="getAllVantagems(@PageableDefault Pageable pageable):&amp;nbsp;ResponseEntity&amp;lt;Page&amp;lt;VantagemModel&amp;gt;&amp;gt;&amp;nbsp;" style="html=1;verticalAlign=bottom;startArrow=oval;endArrow=block;startSize=8;edgeStyle=elbowEdgeStyle;elbow=vertical;curved=0;rounded=0;exitX=1;exitY=0.3333333333333333;exitDx=0;exitDy=0;exitPerimeter=0;" parent="1" source="Uk5BdP9TBarbO92YxZMm-1" target="Q1VgEeJRlTlvnJsxtet2-6" edge="1">
          <mxGeometry x="-0.0175" y="10" relative="1" as="geometry">
            <mxPoint x="-10" y="370" as="sourcePoint" />
            <mxPoint x="190" y="200" as="targetPoint" />
            <Array as="points">
              <mxPoint x="30" y="200" />
              <mxPoint x="-20" y="220" />
            </Array>
            <mxPoint as="offset" />
          </mxGeometry>
        </mxCell>
        <mxCell id="Q1VgEeJRlTlvnJsxtet2-11" value="vanS: VantagemService&amp;nbsp;" style="shape=umlLifeline;perimeter=lifelinePerimeter;whiteSpace=wrap;html=1;container=0;dropTarget=0;collapsible=0;recursiveResize=0;outlineConnect=0;portConstraint=eastwest;newEdgeStyle={&quot;edgeStyle&quot;:&quot;elbowEdgeStyle&quot;,&quot;elbow&quot;:&quot;vertical&quot;,&quot;curved&quot;:0,&quot;rounded&quot;:0};" parent="1" vertex="1">
          <mxGeometry x="640.5" y="70" width="140" height="420" as="geometry" />
        </mxCell>
        <mxCell id="Q1VgEeJRlTlvnJsxtet2-12" value="" style="html=1;points=[];perimeter=orthogonalPerimeter;outlineConnect=0;targetShapes=umlLifeline;portConstraint=eastwest;newEdgeStyle={&quot;edgeStyle&quot;:&quot;elbowEdgeStyle&quot;,&quot;elbow&quot;:&quot;vertical&quot;,&quot;curved&quot;:0,&quot;rounded&quot;:0};" parent="Q1VgEeJRlTlvnJsxtet2-11" vertex="1">
          <mxGeometry x="65" y="60" width="10" height="330" as="geometry" />
        </mxCell>
        <mxCell id="Q1VgEeJRlTlvnJsxtet2-14" value="return" style="html=1;verticalAlign=bottom;endArrow=open;dashed=1;endSize=8;edgeStyle=elbowEdgeStyle;elbow=vertical;curved=0;rounded=0;entryX=0.45;entryY=0.818;entryDx=0;entryDy=0;entryPerimeter=0;" parent="1" source="hJTuhNi6eEkztYhLTzRL-6" target="Q1VgEeJRlTlvnJsxtet2-12" edge="1">
          <mxGeometry relative="1" as="geometry">
            <mxPoint x="720" y="400" as="targetPoint" />
            <Array as="points">
              <mxPoint x="970" y="400" />
              <mxPoint x="1090.5" y="410" />
              <mxPoint x="895.5" y="530" />
              <mxPoint x="1150.5" y="500" />
              <mxPoint x="1030.5" y="500" />
            </Array>
            <mxPoint x="1160" y="400" as="sourcePoint" />
          </mxGeometry>
        </mxCell>
        <mxCell id="hJTuhNi6eEkztYhLTzRL-3" style="edgeStyle=elbowEdgeStyle;rounded=0;orthogonalLoop=1;jettySize=auto;html=1;elbow=vertical;curved=0;" parent="1" source="Q1VgEeJRlTlvnJsxtet2-6" target="Q1VgEeJRlTlvnJsxtet2-11" edge="1">
          <mxGeometry relative="1" as="geometry" />
        </mxCell>
        <mxCell id="hJTuhNi6eEkztYhLTzRL-4" value="&amp;nbsp;findAll(Pageable pageable):&amp;nbsp;Page&amp;lt;VantagemModel&amp;gt;" style="text;html=1;align=center;verticalAlign=middle;resizable=0;points=[];autosize=1;strokeColor=none;fillColor=none;" parent="1" vertex="1">
          <mxGeometry x="270" y="275" width="310" height="30" as="geometry" />
        </mxCell>
        <mxCell id="hJTuhNi6eEkztYhLTzRL-5" value="vanR: VantagemRepository&amp;nbsp;" style="shape=umlLifeline;perimeter=lifelinePerimeter;whiteSpace=wrap;html=1;container=0;dropTarget=0;collapsible=0;recursiveResize=0;outlineConnect=0;portConstraint=eastwest;newEdgeStyle={&quot;edgeStyle&quot;:&quot;elbowEdgeStyle&quot;,&quot;elbow&quot;:&quot;vertical&quot;,&quot;curved&quot;:0,&quot;rounded&quot;:0};" parent="1" vertex="1">
          <mxGeometry x="1010" y="70" width="140" height="420" as="geometry" />
        </mxCell>
        <mxCell id="hJTuhNi6eEkztYhLTzRL-6" value="" style="html=1;points=[];perimeter=orthogonalPerimeter;outlineConnect=0;targetShapes=umlLifeline;portConstraint=eastwest;newEdgeStyle={&quot;edgeStyle&quot;:&quot;elbowEdgeStyle&quot;,&quot;elbow&quot;:&quot;vertical&quot;,&quot;curved&quot;:0,&quot;rounded&quot;:0};" parent="hJTuhNi6eEkztYhLTzRL-5" vertex="1">
          <mxGeometry x="65" y="60" width="10" height="330" as="geometry" />
        </mxCell>
        <mxCell id="hJTuhNi6eEkztYhLTzRL-7" style="edgeStyle=elbowEdgeStyle;rounded=0;orthogonalLoop=1;jettySize=auto;html=1;elbow=vertical;curved=0;" parent="1" source="Q1VgEeJRlTlvnJsxtet2-12" target="hJTuhNi6eEkztYhLTzRL-5" edge="1">
          <mxGeometry relative="1" as="geometry">
            <Array as="points">
              <mxPoint x="850" y="350" />
            </Array>
          </mxGeometry>
        </mxCell>
        <mxCell id="hJTuhNi6eEkztYhLTzRL-8" value="&amp;nbsp;findAll(Pageable pageable):&amp;nbsp;Page&amp;lt;VantagemModel&amp;gt;" style="text;html=1;align=center;verticalAlign=middle;resizable=0;points=[];autosize=1;strokeColor=none;fillColor=none;" parent="1" vertex="1">
          <mxGeometry x="740" y="320" width="310" height="30" as="geometry" />
        </mxCell>
        <mxCell id="hJTuhNi6eEkztYhLTzRL-9" value="return" style="html=1;verticalAlign=bottom;endArrow=open;dashed=1;endSize=8;edgeStyle=elbowEdgeStyle;elbow=vertical;curved=0;rounded=0;" parent="1" target="Q1VgEeJRlTlvnJsxtet2-5" edge="1">
          <mxGeometry relative="1" as="geometry">
            <mxPoint x="440" y="334.5" as="targetPoint" />
            <Array as="points">
              <mxPoint x="700" y="334.5" />
              <mxPoint x="820.5" y="344.5" />
              <mxPoint x="625.5" y="464.5" />
              <mxPoint x="880.5" y="434.5" />
              <mxPoint x="760.5" y="434.5" />
            </Array>
            <mxPoint x="705" y="334.5" as="sourcePoint" />
          </mxGeometry>
        </mxCell>
      </root>
    </mxGraphModel>
  </diagram>
</mxfile>
